<svg width="30" height="30" viewBox="0 0 30 30" fill="none" xmlns="http://www.w3.org/2000/svg">
<rect width="30" height="30" fill="#D9D9D9"/>
<path d="M15 7C9.09091 7 4.04455 10.732 2 16C4.04455 21.268 9.09091 25 15 25C20.9091 25 25.9555 21.268 28 16C25.9555 10.732 20.9091 7 15 7ZM15 22C11.7382 22 9.09091 19.312 9.09091 16C9.09091 12.688 11.7382 10 15 10C18.2618 10 20.9091 12.688 20.9091 16C20.9091 19.312 18.2618 22 15 22ZM15 12.4C13.0382 12.4 11.4545 14.008 11.4545 16C11.4545 17.992 13.0382 19.6 15 19.6C16.9618 19.6 18.5455 17.992 18.5455 16C18.5455 14.008 16.9618 12.4 15 12.4Z" fill="black"/>
</svg>
