<svg xmlns="http://www.w3.org/2000/svg" xmlns:xlink="http://www.w3.org/1999/xlink" version="1.0" x="0px" y="0px" viewBox="0 0 100 125" style="enable-background:new 0 0 100 100;" xml:space="preserve"><g><path d="M78.34,72.85H21.66c-1.1,0-2,0.9-2,2s0.9,2,2,2h56.68c1.1,0,2-0.9,2-2S79.44,72.85,78.34,72.85z"/><path d="M78.34,60.42H37.85c-1.1,0-2,0.9-2,2s0.9,2,2,2h40.49c1.1,0,2-0.9,2-2S79.44,60.42,78.34,60.42z"/><path d="M78.34,48H21.66c-1.1,0-2,0.9-2,2s0.9,2,2,2h56.68c1.1,0,2-0.9,2-2S79.44,48,78.34,48z"/><path d="M78.34,35.58H37.85c-1.1,0-2,0.9-2,2s0.9,2,2,2h40.49c1.1,0,2-0.9,2-2S79.44,35.58,78.34,35.58z"/><path d="M21.66,27.15h56.68c1.1,0,2-0.9,2-2s-0.9-2-2-2H21.66c-1.1,0-2,0.9-2,2S20.56,27.15,21.66,27.15z"/></g></svg>