<svg xmlns="http://www.w3.org/2000/svg" xmlns:xlink="http://www.w3.org/1999/xlink" version="1.0" x="0px" y="0px" viewBox="0 0 100 125" style="enable-background:new 0 0 100 100;" xml:space="preserve"><g><path d="M21.66,27.15h56.68c1.1,0,2-0.9,2-2s-0.9-2-2-2H21.66c-1.1,0-2,0.9-2,2S20.55,27.15,21.66,27.15z"/><path d="M29.76,35.58c-1.1,0-2,0.9-2,2s0.9,2,2,2h40.49c1.1,0,2-0.9,2-2s-0.9-2-2-2H29.76z"/><path d="M78.34,48H21.66c-1.1,0-2,0.9-2,2s0.9,2,2,2h56.68c1.1,0,2-0.9,2-2S79.45,48,78.34,48z"/><path d="M70.24,64.42c1.1,0,2-0.9,2-2s-0.9-2-2-2H29.76c-1.1,0-2,0.9-2,2s0.9,2,2,2H70.24z"/><path d="M78.34,72.85H21.66c-1.1,0-2,0.9-2,2s0.9,2,2,2h56.68c1.1,0,2-0.9,2-2S79.45,72.85,78.34,72.85z"/></g></svg>